<svg width="129" height="29" viewBox="0 0 129 29" fill="none" xmlns="http://www.w3.org/2000/svg">
<g opacity="0.5" clip-path="url(#clip0_39_2210)">
<path d="M36.1071 0V29L50 14.5094L36.1071 0Z" fill="white"/>
<path d="M18.0625 0V29L31.9374 14.5094L18.0625 0Z" fill="white"/>
<path d="M-3.46527e-05 0V29L13.8749 14.5094L-3.46527e-05 0Z" fill="white"/>
</g>
<g opacity="0.5" clip-path="url(#clip1_39_2210)">
<path d="M115.107 0V29L129 14.5094L115.107 0Z" fill="white"/>
<path d="M97.0625 0V29L110.937 14.5094L97.0625 0Z" fill="white"/>
<path d="M79 0V29L92.8749 14.5094L79 0Z" fill="white"/>
</g>
<defs>
<clipPath id="clip0_39_2210">
<rect width="50" height="29" fill="white" transform="matrix(-1 0 0 1 50 0)"/>
</clipPath>
<clipPath id="clip1_39_2210">
<rect width="50" height="29" fill="white" transform="matrix(-1 0 0 1 129 0)"/>
</clipPath>
</defs>
</svg>
