<svg width="360" height="606" viewBox="0 0 360 606" fill="none" xmlns="http://www.w3.org/2000/svg">
<rect width="359.491" height="606" rx="20" fill="url(#paint0_linear_39_3458)"/>
<mask id="mask0_39_3458" style="mask-type:alpha" maskUnits="userSpaceOnUse" x="0" y="0" width="360" height="606">
<rect width="359.491" height="606" rx="20" fill="#09143C"/>
</mask>
<g mask="url(#mask0_39_3458)">
<path fill-rule="evenodd" clip-rule="evenodd" d="M173.932 462.269C157.284 452.165 131.107 452.175 114.088 470.717C109.489 475.729 105.705 480.263 102.27 484.38L102.269 484.382C100.51 486.49 98.8419 488.489 97.2024 490.387C92.3725 495.977 87.8148 500.655 81.987 504.51C70.328 512.223 53.677 516.584 19.7688 518.639C3.01146 519.655 -7.92823 528.46 -13.2227 540.932C-14.0563 542.896 -14.7504 544.952 -15.305 547.084C-9.34046 539.662 -0.344826 534.775 11.6945 534.045C43.8892 532.093 59.4869 527.954 70.3372 520.772C75.7641 517.181 80.0262 512.813 84.5956 507.521C86.1339 505.74 87.7098 503.85 89.3772 501.851L89.3774 501.851L89.3779 501.85C92.6513 497.925 96.2767 493.578 100.66 488.799C117.194 470.775 142.597 470.785 158.75 480.593C166.836 485.502 172.656 492.897 173.855 501.772C175.056 510.655 171.611 520.901 161.413 531.473C155.221 537.892 154.717 547.847 155.627 559.599C155.881 562.877 156.244 566.291 156.617 569.79L156.617 569.79C157.571 578.749 158.585 588.27 157.971 597.529C157.293 607.752 154.63 617.718 147.713 626.382C150.598 624.641 153.166 622.795 155.449 620.859C167.568 610.586 171.73 597.727 172.62 584.323C173.261 574.678 172.208 564.805 171.207 555.413L171.207 555.413L171.207 555.411L171.207 555.41C170.812 551.709 170.426 548.082 170.154 544.573C169.199 532.244 169.659 521.316 176.528 514.198C187.112 503.231 190.553 492.752 189.343 483.807C188.133 474.853 182.247 467.315 173.932 462.269ZM-14.1432 540.541C-15.2888 543.24 -16.1754 546.104 -16.8046 549.094C-18.2481 551.181 -19.4778 553.437 -20.4937 555.832C-21.7663 558.831 -22.7027 562.045 -23.3053 565.414C-30.7464 569.029 -36.0322 575.033 -39.1696 582.43C-42.516 590.32 -43.411 599.774 -41.9062 609.578C-54.3327 611.782 -62.6778 619.224 -66.9581 629.299C-71.7756 640.638 -71.4285 655.265 -66.0772 669.446C-55.3643 697.837 -24.5603 724.565 25.4849 719.998C54.8677 717.317 72.9772 710.423 83.9445 701.134C94.9332 691.827 98.6883 680.17 99.4879 668.137C99.5668 666.95 99.6168 665.758 99.6423 664.564C105.527 661.925 110.336 658.904 114.25 655.584C118.771 651.747 122.088 647.519 124.488 643.032C131.347 640.105 136.875 636.708 141.312 632.944C142.943 631.561 144.425 630.13 145.771 628.655C149.717 626.484 153.137 624.13 156.095 621.622C168.482 611.122 172.716 597.972 173.618 584.389C174.264 574.652 173.197 564.64 172.193 555.218L172.193 555.217C171.801 551.536 171.418 547.945 171.151 544.496C170.194 532.136 170.723 521.653 177.247 514.893C187.976 503.776 191.596 493.007 190.334 483.673C189.074 474.347 182.955 466.575 174.451 461.414C157.461 451.103 130.742 451.094 113.352 470.041C108.738 475.068 104.923 479.639 101.479 483.768L101.479 483.768L101.478 483.768L101.476 483.77L101.476 483.771C99.7222 485.873 98.0643 487.86 96.4457 489.733C91.6365 495.3 87.1493 499.896 81.4353 503.676C70.0105 511.234 53.5899 515.588 19.7083 517.641C2.57064 518.68 -8.70113 527.721 -14.1432 540.541ZM-66.0378 629.69C-61.8917 619.931 -53.8319 612.713 -41.7468 610.566C-41.0308 614.79 -39.8718 619.071 -38.2737 623.313C-37.8769 624.367 -37.453 625.418 -37.002 626.465C-37.3667 627.152 -37.7034 627.859 -38.012 628.583C-41.6341 637.09 -41.3691 648.049 -37.3544 658.665C-29.3147 679.923 -6.20221 699.92 31.3181 696.504C53.3256 694.5 66.9121 689.347 75.1506 682.384C79.568 678.651 82.4296 674.414 84.2279 669.901C89.6128 668.481 94.3927 666.841 98.6316 665.009C98.604 666.032 98.5577 667.053 98.4901 668.071C97.7024 679.925 94.0193 691.29 83.2982 700.371C72.556 709.469 54.6843 716.33 25.3941 719.003C-24.1971 723.528 -54.5851 697.07 -65.1416 669.093C-70.4249 655.092 -70.7318 640.739 -66.0378 629.69ZM84.6616 668.751C89.9004 667.337 94.5432 665.713 98.6542 663.909C98.7171 659.47 98.4461 655.005 98.0547 650.6C94.5537 651.24 90.8562 651.808 86.9516 652.298C86.9812 654.088 86.9491 655.876 86.831 657.65C86.579 661.434 85.9353 665.172 84.6616 668.751ZM85.9545 652.422C85.9802 654.147 85.9473 655.87 85.8332 657.584C85.5708 661.525 84.8782 665.39 83.4813 669.063C75.3655 671.169 65.8554 672.782 54.7235 673.8C6.39987 678.217 -23.9931 653.651 -35.8905 626.514C-32.0751 619.647 -25.2639 614.938 -15.3572 614.339C-14.1594 614.267 -12.994 614.19 -11.8597 614.109C3.72057 638.163 34.0551 657.27 78.6265 653.198C81.1457 652.968 83.5876 652.709 85.9545 652.422ZM86.9287 651.293C90.8125 650.803 94.4873 650.237 97.9637 649.6C97.7415 647.208 97.4885 644.836 97.239 642.497L97.2389 642.497V642.496L97.2052 642.181C94.9174 642.452 92.5636 642.698 90.1418 642.919C88.8797 643.035 87.6284 643.132 86.388 643.213C86.6419 645.877 86.8505 648.585 86.9287 651.293ZM85.389 643.274C85.6468 645.965 85.8576 648.691 85.933 651.417C83.5459 651.707 81.0809 651.969 78.5355 652.202C34.6315 656.213 4.7517 637.561 -10.7204 614.025C-5.46142 613.628 -0.887932 613.13 3.12902 612.522C20.2751 631.668 47.7944 645.437 85.389 643.274ZM86.291 642.217C87.5332 642.137 88.7865 642.039 90.0508 641.924C92.4686 641.703 94.8174 641.457 97.0994 641.186C96.7994 638.361 96.5142 635.589 96.3053 632.895C95.4595 621.984 95.8625 612.285 101.968 605.964C111.336 596.265 114.374 587.007 113.305 579.111C112.236 571.207 107.035 564.548 99.6796 560.088C84.9505 551.157 61.791 551.166 46.7357 567.556C42.6619 571.991 39.312 576.003 36.2694 579.646L36.2687 579.647C34.7098 581.514 33.2315 583.284 31.7778 584.965C27.4978 589.915 23.4561 594.06 18.2868 597.477C13.2323 600.818 7.12158 603.448 -1.31261 605.477C0.188919 607.515 1.79795 609.51 3.51424 611.451C13.9264 609.828 20.4165 607.446 25.4366 604.136C29.2069 601.649 32.1708 598.624 35.3566 594.948C36.4271 593.713 37.5256 592.4 38.6885 591.011C40.9746 588.28 43.5098 585.251 46.5717 581.925C58.1671 569.33 75.9775 569.34 87.302 576.191C92.9731 579.622 97.071 584.801 97.9158 591.03C98.7618 597.267 96.33 604.436 89.1906 611.811C84.9221 616.22 84.5596 623.075 85.1948 631.251C85.3712 633.522 85.6244 635.89 85.8842 638.32V638.32C86.0214 639.603 86.1604 640.904 86.291 642.217ZM4.30928 612.338C14.4417 610.703 20.9184 608.313 25.9871 604.97C29.8712 602.409 32.9057 599.303 36.1123 595.603C37.2033 594.344 38.3114 593.02 39.4792 591.625C41.7557 588.905 44.2594 585.913 47.3074 582.602C58.531 570.412 75.8008 570.402 86.7844 577.047C92.2674 580.364 96.1307 585.308 96.9249 591.164C97.718 597.012 95.4668 603.89 88.4721 611.115C83.8578 615.882 83.5649 623.183 84.1978 631.329C84.3789 633.659 84.636 636.064 84.8981 638.515C85.031 639.759 85.1652 641.014 85.2915 642.278C48.3499 644.393 21.2817 631.006 4.30928 612.338ZM2.33953 611.628C0.666946 609.709 -0.903069 607.737 -2.37023 605.725C-5.9372 606.543 -9.91019 607.259 -14.3787 607.881C-13.4408 609.63 -12.4277 611.361 -11.3396 613.068C-6.14575 612.686 -1.62762 612.209 2.33953 611.628ZM-12.4716 613.149C-13.5314 611.462 -14.5193 609.752 -15.4352 608.025C-21.5839 608.846 -28.6516 609.495 -36.8598 609.992C-38.2022 610.074 -39.5023 610.211 -40.7603 610.403C-40.0559 614.557 -38.9149 618.774 -37.3379 622.961C-37.0356 623.763 -36.7172 624.565 -36.3828 625.365C-32.3373 618.563 -25.3488 613.941 -15.4175 613.341C-14.4126 613.28 -13.4308 613.216 -12.4716 613.149ZM-36.4821 627.645C-24.1941 654.875 6.48425 679.213 54.8145 674.796C65.659 673.804 74.9929 672.248 83.0173 670.214C81.2593 674.338 78.5558 678.197 74.5052 681.621C66.4917 688.393 53.1428 693.513 31.2274 695.508C-5.84039 698.882 -28.5365 679.154 -36.4191 658.311C-40.3655 647.876 -40.5901 637.19 -37.0919 628.975C-36.8999 628.524 -36.6967 628.08 -36.4821 627.645ZM113.603 654.821C109.863 657.994 105.273 660.9 99.6589 663.459C99.6975 659.106 99.4258 654.726 99.0422 650.416C108.382 648.654 116.3 646.368 123.001 643.65C120.711 647.632 117.65 651.387 113.603 654.821ZM123.771 642.25C116.929 645.137 108.739 647.563 98.9511 649.416C98.7277 647.014 98.4742 644.637 98.2251 642.302L98.225 642.301L98.1993 642.061C108.965 640.74 118.248 638.869 126.243 636.533C125.564 638.479 124.747 640.387 123.771 642.25ZM126.629 635.376C118.554 637.784 109.115 639.714 98.0934 641.066C97.7933 638.241 97.5088 635.481 97.3023 632.818C96.4541 621.876 96.9267 612.622 102.687 606.659C112.2 596.81 115.417 587.261 114.296 578.977C113.176 570.701 107.742 563.807 100.198 559.233C85.1274 550.095 61.4263 550.085 45.9993 566.88C41.9116 571.33 38.5303 575.379 35.4781 579.033L35.4778 579.034C33.9236 580.895 32.4547 582.654 31.0214 584.311C26.7621 589.237 22.791 593.301 17.7354 596.643C12.7163 599.96 6.60577 602.58 -1.94953 604.6C-6.32356 598.502 -9.74654 592.036 -12.2121 585.497C-14.9212 578.311 -16.4726 571.042 -16.8626 564.077C-14.3018 563.383 -11.5397 562.932 -8.57491 562.753C21.969 560.9 36.9788 556.968 47.4922 550.006C52.7471 546.527 56.8559 542.306 61.2075 537.265C62.685 535.553 64.1875 533.751 65.7721 531.85L65.7737 531.848L65.774 531.848L65.7743 531.847L65.7745 531.847L65.7754 531.846C68.8688 528.135 72.2747 524.05 76.4163 519.533C91.727 502.836 115.279 502.827 130.257 511.925C137.738 516.469 143.028 523.253 144.116 531.307C145.203 539.353 142.112 548.786 132.586 558.665C126.381 565.1 125.971 574.974 126.831 586.088C127.076 589.254 127.424 592.526 127.78 595.865V595.866V595.866V595.866L127.78 595.866C128.682 604.331 129.629 613.226 129.052 621.916C128.748 626.508 128.017 631.029 126.629 635.376ZM-13.1478 585.85C-10.6967 592.351 -7.31291 598.775 -3.0044 604.844C-6.52735 605.637 -10.455 606.333 -14.8754 606.94C-16.3069 604.182 -17.5528 601.384 -18.6124 598.572C-22.8141 587.422 -24.0836 576.063 -22.4082 566.094C-20.9699 565.423 -19.45 564.842 -17.8479 564.359C-17.4307 571.369 -15.8587 578.659 -13.1478 585.85ZM-19.5482 598.925C-18.5154 601.666 -17.3083 604.392 -15.9277 607.081C-21.9568 607.875 -28.8836 608.508 -36.9203 608.994C-38.296 609.078 -39.6291 609.219 -40.9197 609.416C-42.398 599.771 -41.5105 590.511 -38.249 582.82C-35.2978 575.862 -30.3969 570.172 -23.5078 566.633C-25.0427 576.632 -23.7017 587.903 -19.5482 598.925ZM125.205 641.629C131.47 638.85 136.554 635.669 140.665 632.182C141.452 631.514 142.204 630.835 142.922 630.145C138.407 632.389 133.265 634.413 127.418 636.184C126.805 638.031 126.073 639.849 125.205 641.629ZM127.785 635.025C134.493 632.954 140.235 630.545 145.143 627.859C153.239 618.923 156.248 608.385 156.973 597.463C157.581 588.296 156.582 578.913 155.631 569.985C155.256 566.464 154.888 563.014 154.63 559.676C153.722 547.956 154.157 537.555 160.693 530.779C170.747 520.357 174.012 510.401 172.864 501.906C171.715 493.403 166.128 486.242 158.231 481.447C142.42 471.847 117.56 471.857 101.397 489.475C97.0272 494.239 93.4329 498.549 90.169 502.463L90.1688 502.463L90.1681 502.464C88.4961 504.469 86.9109 506.37 85.3524 508.175C80.7623 513.49 76.4297 517.939 70.8891 521.606C59.8045 528.943 43.9764 533.089 11.755 535.043C-0.942467 535.813 -10.1214 541.294 -15.8668 549.497C-16.7513 553.787 -17.0992 558.347 -16.9116 563.055C-14.3456 562.376 -11.5869 561.933 -8.63546 561.754C21.8818 559.903 36.661 555.979 46.9401 549.173C52.0814 545.768 56.1197 541.629 60.4505 536.611C61.9077 534.923 63.4009 533.132 64.9807 531.237L64.9822 531.235L64.9825 531.235L64.9831 531.234C68.0862 527.512 71.5236 523.389 75.6792 518.857C91.3616 501.755 115.456 501.765 130.777 511.07C138.446 515.729 143.969 522.748 145.107 531.173C146.246 539.607 142.976 549.33 133.306 559.36C127.445 565.437 126.965 574.866 127.828 586.01C128.068 589.117 128.413 592.354 128.766 595.671C129.671 604.167 130.633 613.2 130.05 621.982C129.756 626.412 129.07 630.791 127.785 635.025ZM-17.9009 563.332C-18.0754 559.327 -17.8697 555.421 -17.2807 551.686C-18.14 553.13 -18.9041 554.645 -19.5732 556.222C-20.7278 558.944 -21.6005 561.851 -22.1917 564.898C-20.8297 564.297 -19.3995 563.773 -17.9009 563.332Z" fill="white" fill-opacity="0.2"/>
</g>
<defs>
<linearGradient id="paint0_linear_39_3458" x1="179.746" y1="0" x2="179.746" y2="606" gradientUnits="userSpaceOnUse">
<stop stop-color="#446381"/>
<stop offset="1" stop-color="#826F8C"/>
</linearGradient>
</defs>
</svg>
