<svg width="14" height="10" viewBox="0 0 14 10" fill="none" xmlns="http://www.w3.org/2000/svg">
<path fill-rule="evenodd" clip-rule="evenodd" d="M13.3492 0.795551C13.4031 0.849322 13.4459 0.913201 13.475 0.983527C13.5042 1.05385 13.5192 1.12925 13.5192 1.20539C13.5192 1.28153 13.5042 1.35692 13.475 1.42725C13.4459 1.49757 13.4031 1.56145 13.3492 1.61522L5.24509 9.71931C5.19132 9.77322 5.12744 9.81599 5.05711 9.84517C4.98679 9.87435 4.91139 9.88937 4.83525 9.88937C4.75911 9.88937 4.68372 9.87435 4.61339 9.84517C4.54307 9.81599 4.47919 9.77322 4.42542 9.71931L0.373373 5.66727C0.264677 5.55857 0.203613 5.41115 0.203613 5.25743C0.203613 5.10371 0.264677 4.95629 0.373373 4.84759C0.482068 4.7389 0.62949 4.67784 0.783208 4.67784C0.936926 4.67784 1.08435 4.7389 1.19304 4.84759L4.83525 8.49096L12.5295 0.795551C12.5833 0.741644 12.6472 0.698874 12.7175 0.669692C12.7878 0.64051 12.8632 0.625488 12.9393 0.625488C13.0155 0.625488 13.0909 0.64051 13.1612 0.669692C13.2315 0.698874 13.2954 0.741644 13.3492 0.795551Z" fill="#486482"/>
</svg>
