<svg width="56" height="56" viewBox="0 0 56 56" fill="none" xmlns="http://www.w3.org/2000/svg">
<g filter="url(#filter0_d_11450_11)">
<rect x="9" y="9" width="40" height="40" rx="20" fill="#FCD8CB"/>
</g>
<path d="M29.0125 23.8766C27.9981 23.8751 27.0061 24.1745 26.1619 24.737C25.3178 25.2995 24.6594 26.0997 24.2702 27.0365C23.881 27.9732 23.7784 29.0043 23.9754 29.9994C24.1724 30.9945 24.6601 31.9088 25.3769 32.6266C26.0936 33.3444 27.0072 33.8334 28.0019 34.0319C28.9967 34.2303 30.028 34.1292 30.9653 33.7414C31.9026 33.3535 32.7038 32.6964 33.2675 31.853C33.8313 31.0097 34.1321 30.0181 34.1321 29.0037C34.1331 28.3308 34.0014 27.6642 33.7446 27.0422C33.4877 26.4202 33.1108 25.8549 32.6353 25.3787C32.1598 24.9025 31.5951 24.5248 30.9734 24.267C30.3518 24.0092 29.6854 23.8766 29.0125 23.8766ZM29.0125 32.336C28.3531 32.3375 27.7081 32.1434 27.1591 31.7781C26.6101 31.4128 26.1819 30.8929 25.9285 30.2842C25.6751 29.6754 25.6081 29.0052 25.7358 28.3583C25.8635 27.7114 26.1803 27.1169 26.646 26.6501C27.1118 26.1833 27.7055 25.8652 28.3521 25.736C28.9987 25.6069 29.6691 25.6724 30.2784 25.9244C30.8878 26.1764 31.4087 26.6035 31.7751 27.1517C32.1416 27.6998 32.3373 28.3444 32.3373 29.0037C32.3353 29.8856 31.9846 30.7309 31.3617 31.3552C30.7388 31.9795 29.8943 32.3321 29.0125 32.336ZM35.5371 23.6591C35.5371 23.8954 35.467 24.1264 35.3357 24.3229C35.2044 24.5195 35.0178 24.6726 34.7994 24.7631C34.5811 24.8535 34.3408 24.8772 34.109 24.831C33.8772 24.7849 33.6643 24.6711 33.4972 24.504C33.3301 24.3369 33.2163 24.124 33.1702 23.8922C33.1241 23.6604 33.1477 23.4201 33.2382 23.2018C33.3286 22.9835 33.4818 22.7968 33.6783 22.6655C33.8748 22.5342 34.1058 22.4642 34.3421 22.4642C34.4991 22.4638 34.6547 22.4945 34.7998 22.5544C34.9449 22.6144 35.0768 22.7024 35.1878 22.8134C35.2988 22.9244 35.3868 23.0563 35.4468 23.2014C35.5067 23.3465 35.5374 23.5021 35.5371 23.6591ZM38.9319 24.874C38.9647 23.3195 38.3846 21.8146 37.317 20.6843C36.1845 19.6201 34.681 19.0406 33.1272 19.0694C31.4773 18.9769 26.5276 18.9769 24.8777 19.0694C23.323 19.0391 21.8182 19.6188 20.6855 20.6843C19.6195 21.8156 19.0397 23.3199 19.0706 24.874C18.9781 26.5239 18.9781 31.4736 19.0706 33.1235C19.0371 34.6788 19.6172 36.1848 20.6855 37.3157C21.8184 38.3792 23.3216 38.9586 24.8752 38.9306C26.5251 39.0231 31.4748 39.0231 33.1247 38.9306C34.6792 38.9634 36.1841 38.3834 37.3145 37.3157C38.3786 36.1832 38.9581 34.6797 38.9293 33.126C39.0218 31.4761 39.0218 26.5314 38.9293 24.8765L38.9319 24.874ZM36.7995 34.9084C36.6298 35.3383 36.3736 35.7287 36.0468 36.0555C35.72 36.3824 35.3295 36.6386 34.8996 36.8083C32.9637 37.2023 30.9836 37.3343 29.0125 37.2007C27.0384 37.3297 25.056 37.1943 23.1178 36.7983C22.6879 36.6286 22.2975 36.3724 21.9707 36.0455C21.6439 35.7187 21.3877 35.3283 21.218 34.8984C20.8165 32.9609 20.6778 30.9782 20.8055 29.0037C20.6765 27.0297 20.8119 25.0473 21.208 23.1091C21.3777 22.6792 21.6339 22.2888 21.9607 21.962C22.2875 21.6351 22.6779 21.3789 23.1078 21.2092C25.0489 20.8094 27.035 20.6732 29.0125 20.8043C30.9865 20.6753 32.9689 20.8107 34.9071 21.2067C35.337 21.3764 35.7275 21.6326 36.0543 21.9595C36.3811 22.2863 36.6373 22.6767 36.807 23.1066C37.2051 25.0445 37.3405 27.0272 37.2095 29.0013C37.3393 30.9798 37.2014 32.9668 36.7995 34.9084Z" fill="#446381"/>
<defs>
<filter id="filter0_d_11450_11" x="0" y="0" width="56" height="56" filterUnits="userSpaceOnUse" color-interpolation-filters="sRGB">
<feFlood flood-opacity="0" result="BackgroundImageFix"/>
<feColorMatrix in="SourceAlpha" type="matrix" values="0 0 0 0 0 0 0 0 0 0 0 0 0 0 0 0 0 0 127 0" result="hardAlpha"/>
<feOffset dx="-1" dy="-1"/>
<feGaussianBlur stdDeviation="4"/>
<feComposite in2="hardAlpha" operator="out"/>
<feColorMatrix type="matrix" values="0 0 0 0 1 0 0 0 0 1 0 0 0 0 1 0 0 0 0.08 0"/>
<feBlend mode="normal" in2="BackgroundImageFix" result="effect1_dropShadow_11450_11"/>
<feBlend mode="normal" in="SourceGraphic" in2="effect1_dropShadow_11450_11" result="shape"/>
</filter>
</defs>
</svg>
