<svg width="56" height="56" viewBox="0 0 56 56" fill="none" xmlns="http://www.w3.org/2000/svg">
<g filter="url(#filter0_d_11450_10)">
<rect x="9" y="9" width="40" height="40" rx="20" fill="#FCD8CB"/>
</g>
<path d="M37.9468 24.9257C37.9597 25.1035 37.9597 25.2814 37.9597 25.4593C37.9703 26.9939 37.6758 28.5152 37.0934 29.935C36.511 31.3548 35.6523 32.6447 34.5672 33.7299C33.482 34.815 32.1921 35.6737 30.7723 36.2561C29.3525 36.8385 27.8312 37.1329 26.2966 37.1224C24.0638 37.1269 21.8772 36.4861 20 35.2771C20.3288 35.3136 20.6594 35.3307 20.9901 35.3286C22.8354 35.3335 24.6284 34.7166 26.0802 33.5776C25.2249 33.5626 24.3957 33.2808 23.7084 32.7717C23.021 32.2627 22.5097 31.5516 22.246 30.7379C22.502 30.7787 22.7606 30.8002 23.0197 30.8022C23.3813 30.8006 23.7413 30.7538 24.0913 30.6629C23.1642 30.4735 22.3312 29.9692 21.7336 29.2356C21.1359 28.502 20.8104 27.5843 20.8123 26.638V26.5887C21.3805 26.9061 22.0157 27.0845 22.6661 27.1095C21.7954 26.5293 21.1791 25.6387 20.9429 24.6194C20.7067 23.6002 20.8685 22.5292 21.3952 21.6252C22.4252 22.8919 23.7099 23.9281 25.1661 24.6665C26.6222 25.4049 28.2173 25.8291 29.8478 25.9115C29.7823 25.6029 29.7486 25.2883 29.7471 24.9728C29.7488 24.1508 29.9972 23.3482 30.4603 22.6691C30.9234 21.9899 31.5797 21.4654 32.3443 21.1636C33.1089 20.8618 33.9465 20.7965 34.7486 20.9763C35.5508 21.156 36.2804 21.5725 36.8431 22.1717C37.7612 21.9948 38.6415 21.6598 39.4449 21.1815C39.1391 22.1288 38.4982 22.9319 37.6425 23.4404C38.456 23.3448 39.2506 23.1281 40 22.7975C39.4404 23.6175 38.7462 24.337 37.9468 24.9257Z" fill="#446381"/>
<defs>
<filter id="filter0_d_11450_10" x="0" y="0" width="56" height="56" filterUnits="userSpaceOnUse" color-interpolation-filters="sRGB">
<feFlood flood-opacity="0" result="BackgroundImageFix"/>
<feColorMatrix in="SourceAlpha" type="matrix" values="0 0 0 0 0 0 0 0 0 0 0 0 0 0 0 0 0 0 127 0" result="hardAlpha"/>
<feOffset dx="-1" dy="-1"/>
<feGaussianBlur stdDeviation="4"/>
<feComposite in2="hardAlpha" operator="out"/>
<feColorMatrix type="matrix" values="0 0 0 0 1 0 0 0 0 1 0 0 0 0 1 0 0 0 0.08 0"/>
<feBlend mode="normal" in2="BackgroundImageFix" result="effect1_dropShadow_11450_10"/>
<feBlend mode="normal" in="SourceGraphic" in2="effect1_dropShadow_11450_10" result="shape"/>
</filter>
</defs>
</svg>
